# This file uses centimeters as units for non-parametric coordinates.

v 2.574586 0.000000 -0.041479
v 2.448576 0.795591 -0.041479
v 2.082885 1.513304 -0.041479
v 1.513304 2.082885 -0.041479
v 0.795591 2.448576 -0.041479
v -0.000000 2.574586 -0.041479
v -0.795591 2.448577 -0.041479
v -1.513305 2.082885 -0.041479
v -2.082885 1.513304 -0.041479
v -2.448576 0.795591 -0.041479
v -2.574586 0.000000 -0.041479
v -2.448577 -0.795591 -0.041479
v -2.082885 -1.513304 -0.041479
v -1.513304 -2.082885 -0.041479
v -0.795591 -2.448576 -0.041479
v -0.000000 -2.574586 -0.041479
v 0.795591 -2.448577 -0.041479
v 1.513304 -2.082885 -0.041479
v 2.082885 -1.513304 -0.041479
v 2.448576 -0.795591 -0.041479
v 3.574365 0.000000 -0.041479
v 3.399424 1.104540 -0.041479
v 2.891722 2.100959 -0.041479
v 2.100959 2.891723 -0.041479
v 1.104540 3.399424 -0.041479
v -0.000000 3.574366 -0.041479
v -1.104540 3.399424 -0.041479
v -2.100960 2.891723 -0.041479
v -2.891723 2.100960 -0.041479
v -3.399424 1.104540 -0.041479
v -3.574366 0.000000 -0.041479
v -3.399424 -1.104540 -0.041479
v -2.891723 -2.100960 -0.041479
v -2.100960 -2.891724 -0.041479
v -1.104540 -3.399425 -0.041479
v 0.000000 -3.574367 -0.041479
v 1.104540 -3.399425 -0.041479
v 2.100961 -2.891724 -0.041479
v 2.891724 -2.100961 -0.041479
v 3.399426 -1.104540 -0.041479
vt 0.130227 0.258264
vt 0.130227 0.209706
vt 0.130227 0.161147
vt 0.130227 0.112597
vt 0.130227 0.064173
vt 0.130227 0.016282
vt 0.130227 0.938361
vt 0.130227 0.889708
vt 0.130227 0.841119
vt 0.130227 0.792528
vt 0.130227 0.743936
vt 0.130227 0.695344
vt 0.130227 0.646752
vt 0.130227 0.598160
vt 0.130227 0.549604
vt 0.130227 0.501049
vt 0.130227 0.452493
vt 0.130227 0.403936
vt 0.130227 0.355379
vt 0.130227 0.306822
vt 0.086015 0.258264
vt 0.086015 0.209706
vt 0.086015 0.161147
vt 0.086015 0.112597
vt 0.086015 0.064173
vt 0.086015 0.016282
vt 0.086015 0.938361
vt 0.086015 0.889708
vt 0.086015 0.841119
vt 0.086016 0.792528
vt 0.086016 0.743936
vt 0.086016 0.695344
vt 0.086015 0.646752
vt 0.086016 0.598160
vt 0.086015 0.549604
vt 0.086015 0.501049
vt 0.086015 0.452493
vt 0.086015 0.403936
vt 0.086015 0.355379
vt 0.086015 0.306822
vt 0.086015 0.987771
vt 0.130227 0.987771
vn 0.000000 0.000000 1.000000
vn 0.000000 0.000000 1.000000
vn 0.000000 0.000000 1.000000
vn 0.000000 0.000000 1.000000
vn 0.000000 0.000000 1.000000
vn 0.000000 0.000000 1.000000
vn 0.000000 -0.000000 1.000000
vn 0.000000 -0.000000 1.000000
vn 0.000000 -0.000000 1.000000
vn 0.000000 -0.000000 1.000000
vn 0.000000 0.000000 1.000000
vn 0.000000 0.000000 1.000000
vn 0.000000 0.000000 1.000000
vn 0.000000 0.000000 1.000000
vn 0.000000 0.000000 1.000000
vn 0.000000 0.000000 1.000000
vn 0.000000 0.000000 1.000000
vn 0.000000 0.000000 1.000000
vn 0.000000 0.000000 1.000000
vn 0.000000 0.000000 1.000000
vn 0.000000 0.000000 1.000000
vn 0.000000 0.000000 1.000000
vn 0.000000 0.000000 1.000000
vn 0.000000 0.000000 1.000000
vn 0.000000 -0.000000 1.000000
vn 0.000000 -0.000000 1.000000
vn 0.000000 -0.000000 1.000000
vn 0.000000 -0.000000 1.000000
vn 0.000000 -0.000000 1.000000
vn 0.000000 -0.000000 1.000000
vn 0.000000 -0.000000 1.000000
vn 0.000000 -0.000000 1.000000
vn 0.000000 0.000000 1.000000
vn 0.000000 0.000000 1.000000
vn 0.000000 0.000000 1.000000
vn 0.000000 -0.000000 1.000000
vn 0.000000 -0.000000 1.000000
vn 0.000000 -0.000000 1.000000
vn 0.000000 0.000000 1.000000
vn 0.000000 0.000000 1.000000
s 1
g speed_indicator_inset
f 2/2/1 1/1/2 21/21/3 22/22/4
f 3/3/5 2/2/1 22/22/4 23/23/6
f 4/4/7 3/3/5 23/23/6 24/24/8
f 5/5/9 4/4/7 24/24/8 25/25/10
f 6/6/11 5/5/9 25/25/10 26/26/12
f 7/7/13 6/42/11 26/41/12 27/27/14
f 8/8/15 7/7/13 27/27/14 28/28/16
f 9/9/17 8/8/15 28/28/16 29/29/18
f 10/10/19 9/9/17 29/29/18 30/30/20
f 11/11/21 10/10/19 30/30/20 31/31/22
f 12/12/23 11/11/21 31/31/22 32/32/24
f 13/13/25 12/12/23 32/32/24 33/33/26
f 14/14/27 13/13/25 33/33/26 34/34/28
f 15/15/29 14/14/27 34/34/28 35/35/30
f 16/16/31 15/15/29 35/35/30 36/36/32
f 17/17/33 16/16/31 36/36/32 37/37/34
f 18/18/35 17/17/33 37/37/34 38/38/36
f 19/19/37 18/18/35 38/38/36 39/39/38
f 20/20/39 19/19/37 39/39/38 40/40/40
f 1/1/2 20/20/39 40/40/40 21/21/3
