# This file uses centimeters as units for non-parametric coordinates.

v -4.087854 2.245394 0.000000
v -3.787854 2.245394 0.000000
v -4.087854 2.545394 0.000000
v -3.787854 2.545394 0.000000
vt 0.000000 0.666667
vt 0.333333 0.666667
vt 0.000000 1.000000
vt 0.333333 1.000000
vn 0.000000 0.000000 1.000000
vn 0.000000 0.000000 1.000000
vn 0.000000 0.000000 1.000000
vn 0.000000 0.000000 1.000000
s off
g r drive_state_indicators
f 1/1/1 2/2/2 4/4/3 3/3/4
v -4.634391 1.154692 0.000000
v -4.334391 1.154692 0.000000
v -4.634391 1.454692 0.000000
v -4.334391 1.454692 0.000000
vt 0.000000 0.333333
vt 0.333333 0.333333
vt 0.000000 0.666667
vt 0.333333 0.666667
vn 0.000000 0.000000 1.000000
vn 0.000000 0.000000 1.000000
vn 0.000000 0.000000 1.000000
vn 0.000000 0.000000 1.000000
s off
g drive_state_indicators n
f 5/5/5 6/6/6 8/8/7 7/7/8
v -5.185438 -0.408255 0.000000
v -4.345111 -0.408255 0.000000
v -5.185438 0.432073 0.000000
v -4.345111 0.432073 0.000000
vt 0.000000 -0.000000
vt 0.333333 -0.000000
vt 0.000000 0.333333
vt 0.333333 0.333333
vn 0.000000 0.000000 1.000000
vn 0.000000 0.000000 1.000000
vn 0.000000 0.000000 1.000000
vn 0.000000 0.000000 1.000000
s off
g drive_state_indicators d
f 9/9/9 10/10/10 12/12/11 11/11/12
v -4.641169 -1.522588 0.000000
v -4.341169 -1.522588 0.000000
v -4.641169 -1.222588 0.000000
v -4.341169 -1.222588 0.000000
vt 0.333333 0.333333
vt 0.666667 0.333333
vt 0.333333 0.666667
vt 0.666667 0.666667
vn 0.000000 0.000000 1.000000
vn 0.000000 0.000000 1.000000
vn 0.000000 0.000000 1.000000
vn 0.000000 0.000000 1.000000
s off
g drive_state_indicators p
f 13/13/13 14/14/14 16/16/15 15/15/16
v -4.110614 -2.706585 0.000000
v -3.810614 -2.706585 0.000000
v -4.110614 -2.406585 0.000000
v -3.810614 -2.406585 0.000000
vt 0.333333 0.000000
vt 0.666667 0.000000
vt 0.333333 0.333333
vt 0.666667 0.333333
vn 0.000000 0.000000 1.000000
vn 0.000000 0.000000 1.000000
vn 0.000000 0.000000 1.000000
vn 0.000000 0.000000 1.000000
s off
g drive_state_indicators b
f 17/17/17 18/18/18 20/20/19 19/19/20
